<?xml version="1.0" encoding="UTF-8" standalone="no"?><!DOCTYPE svg PUBLIC "-//W3C//DTD SVG 1.1//EN" "http://www.w3.org/Graphics/SVG/1.1/DTD/svg11.dtd"><svg width="100%" height="100%" viewBox="0 0 1024 170" version="1.1" xmlns="http://www.w3.org/2000/svg" xmlns:xlink="http://www.w3.org/1999/xlink" xml:space="preserve" xmlns:serif="http://www.serif.com/" style="fill-rule:evenodd;clip-rule:evenodd;stroke-linejoin:round;stroke-miterlimit:1.41421;"><rect id="Seats.io-white" serif:id="Seats.io white" x="0" y="0" width="1024" height="170" style="fill:none;"/><clipPath id="_clip1"><rect x="0" y="0" width="1024" height="170"/></clipPath><g clip-path="url(#_clip1)"><g id="seats.io"><path d="M86.806,41.011c-0.946,1.513 -1.939,2.648 -2.979,3.404c-1.04,0.757 -2.38,1.135 -4.019,1.135c-1.45,0 -3.01,-0.457 -4.68,-1.371c-1.671,-0.914 -3.562,-1.939 -5.674,-3.073c-2.112,-1.135 -4.523,-2.16 -7.234,-3.074c-2.71,-0.914 -5.799,-1.371 -9.267,-1.371c-5.988,0 -10.448,1.277 -13.38,3.83c-2.931,2.553 -4.397,6.004 -4.397,10.354c0,2.774 0.883,5.075 2.648,6.903c1.765,1.828 4.082,3.404 6.95,4.728c2.868,1.324 6.146,2.537 9.834,3.641c3.688,1.103 7.455,2.332 11.3,3.687c3.846,1.356 7.612,2.948 11.3,4.776c3.688,1.828 6.966,4.16 9.834,6.997c2.869,2.837 5.185,6.288 6.95,10.354c1.765,4.066 2.648,8.968 2.648,14.704c0,6.367 -1.103,12.325 -3.31,17.872c-2.206,5.548 -5.405,10.386 -9.597,14.515c-4.193,4.129 -9.362,7.376 -15.508,9.74c-6.147,2.364 -13.128,3.546 -20.945,3.546c-4.287,0 -8.652,-0.442 -13.097,-1.324c-4.444,-0.883 -8.746,-2.128 -12.907,-3.735c-4.161,-1.608 -8.069,-3.515 -11.725,-5.721c-3.657,-2.206 -6.84,-4.665 -9.551,-7.376l9.456,-14.94c0.693,-1.135 1.671,-2.049 2.931,-2.742c1.261,-0.694 2.616,-1.041 4.066,-1.041c1.892,0 3.799,0.599 5.721,1.797c1.923,1.198 4.098,2.522 6.525,3.972c2.427,1.449 5.216,2.773 8.368,3.971c3.152,1.198 6.872,1.797 11.158,1.797c5.8,0 10.307,-1.277 13.522,-3.83c3.216,-2.553 4.823,-6.603 4.823,-12.151c0,-3.215 -0.883,-5.831 -2.648,-7.848c-1.765,-2.018 -4.081,-3.688 -6.95,-5.012c-2.868,-1.324 -6.13,-2.49 -9.787,-3.499c-3.656,-1.008 -7.407,-2.127 -11.252,-3.357c-3.846,-1.229 -7.597,-2.742 -11.253,-4.538c-3.656,-1.797 -6.919,-4.161 -9.787,-7.092c-2.868,-2.932 -5.185,-6.588 -6.95,-10.969c-1.765,-4.382 -2.648,-9.787 -2.648,-16.217c0,-5.17 1.04,-10.213 3.121,-15.13c2.08,-4.917 5.138,-9.298 9.172,-13.144c4.035,-3.845 8.983,-6.918 14.846,-9.219c5.863,-2.301 12.576,-3.452 20.141,-3.452c4.224,0 8.337,0.331 12.34,0.993c4.003,0.662 7.801,1.639 11.395,2.932c3.593,1.292 6.95,2.836 10.07,4.633c3.121,1.797 5.91,3.83 8.369,6.099l-7.943,14.846Z" style="fill:#fff;fill-rule:nonzero;"/><path d="M198.386,13.021l0,24.586l-56.546,0l0,32.15l43.308,0l0,23.64l-43.308,0l0,32.812l56.546,0l0,24.586l-88.697,0l0,-137.774l88.697,0Z" style="fill:#fff;fill-rule:nonzero;"/><path d="M341.928,150.795l-24.775,0c-2.774,0 -5.059,-0.646 -6.855,-1.939c-1.797,-1.292 -3.042,-2.947 -3.735,-4.964l-8.133,-24.018l-52.386,0l-8.132,24.018c-0.63,1.765 -1.859,3.357 -3.688,4.775c-1.828,1.419 -4.066,2.128 -6.713,2.128l-24.964,0l53.332,-137.774l32.717,0l53.332,137.774Zm-88.508,-52.67l37.635,0l-12.671,-37.729c-0.82,-2.396 -1.781,-5.217 -2.884,-8.463c-1.104,-3.247 -2.191,-6.761 -3.263,-10.544c-1.008,3.846 -2.048,7.407 -3.12,10.685c-1.072,3.279 -2.08,6.115 -3.026,8.511l-12.671,37.54Z" style="fill:#fff;fill-rule:nonzero;"/><path d="M450.293,13.021l0,25.342l-38.769,0l0,112.432l-31.961,0l0,-112.432l-38.77,0l0,-25.342l109.5,0Z" style="fill:#fff;fill-rule:nonzero;"/><path d="M537.477,41.011c-0.945,1.513 -1.938,2.648 -2.978,3.404c-1.04,0.757 -2.38,1.135 -4.019,1.135c-1.45,0 -3.01,-0.457 -4.681,-1.371c-1.67,-0.914 -3.562,-1.939 -5.673,-3.073c-2.112,-1.135 -4.523,-2.16 -7.234,-3.074c-2.711,-0.914 -5.8,-1.371 -9.267,-1.371c-5.989,0 -10.449,1.277 -13.38,3.83c-2.932,2.553 -4.397,6.004 -4.397,10.354c0,2.774 0.882,5.075 2.647,6.903c1.766,1.828 4.082,3.404 6.951,4.728c2.868,1.324 6.146,2.537 9.834,3.641c3.688,1.103 7.454,2.332 11.3,3.687c3.845,1.356 7.612,2.948 11.3,4.776c3.687,1.828 6.965,4.16 9.834,6.997c2.868,2.837 5.185,6.288 6.95,10.354c1.765,4.066 2.648,8.968 2.648,14.704c0,6.367 -1.104,12.325 -3.31,17.872c-2.206,5.548 -5.406,10.386 -9.598,14.515c-4.192,4.129 -9.361,7.376 -15.508,9.74c-6.146,2.364 -13.128,3.546 -20.945,3.546c-4.286,0 -8.652,-0.442 -13.096,-1.324c-4.444,-0.883 -8.747,-2.128 -12.908,-3.735c-4.16,-1.608 -8.069,-3.515 -11.725,-5.721c-3.656,-2.206 -6.84,-4.665 -9.55,-7.376l9.455,-14.94c0.694,-1.135 1.671,-2.049 2.932,-2.742c1.261,-0.694 2.616,-1.041 4.066,-1.041c1.891,0 3.798,0.599 5.721,1.797c1.922,1.198 4.097,2.522 6.524,3.972c2.427,1.449 5.217,2.773 8.369,3.971c3.152,1.198 6.871,1.797 11.158,1.797c5.8,0 10.307,-1.277 13.522,-3.83c3.215,-2.553 4.823,-6.603 4.823,-12.151c0,-3.215 -0.883,-5.831 -2.648,-7.848c-1.765,-2.018 -4.082,-3.688 -6.95,-5.012c-2.869,-1.324 -6.131,-2.49 -9.787,-3.499c-3.657,-1.008 -7.407,-2.127 -11.253,-3.357c-3.845,-1.229 -7.596,-2.742 -11.252,-4.538c-3.657,-1.797 -6.919,-4.161 -9.787,-7.092c-2.869,-2.932 -5.185,-6.588 -6.95,-10.969c-1.766,-4.382 -2.648,-9.787 -2.648,-16.217c0,-5.17 1.04,-10.213 3.12,-15.13c2.081,-4.917 5.138,-9.298 9.173,-13.144c4.034,-3.845 8.983,-6.918 14.845,-9.219c5.863,-2.301 12.577,-3.452 20.142,-3.452c4.223,0 8.337,0.331 12.34,0.993c4.003,0.662 7.801,1.639 11.394,2.932c3.593,1.292 6.95,2.836 10.071,4.633c3.12,1.797 5.91,3.83 8.368,6.099l-7.943,14.846Z" style="fill:#fff;fill-rule:nonzero;"/><rect x="833.179" y="13.021" width="32.15" height="137.773" style="fill:#fff;fill-rule:nonzero;"/><path d="M1024,81.861c0,9.96 -1.718,19.227 -5.154,27.8c-3.435,8.574 -8.273,16.028 -14.514,22.364c-6.241,6.335 -13.759,11.3 -22.553,14.893c-8.794,3.593 -18.549,5.39 -29.266,5.39c-10.717,0 -20.488,-1.797 -29.314,-5.39c-8.825,-3.593 -16.374,-8.558 -22.647,-14.893c-6.272,-6.336 -11.126,-13.79 -14.562,-22.364c-3.436,-8.573 -5.153,-17.84 -5.153,-27.8c0,-9.961 1.717,-19.227 5.153,-27.801c3.436,-8.573 8.29,-16.012 14.562,-22.316c6.273,-6.304 13.822,-11.252 22.647,-14.846c8.826,-3.593 18.597,-5.39 29.314,-5.39c10.717,0 20.472,1.813 29.266,5.438c8.794,3.624 16.312,8.589 22.553,14.893c6.241,6.304 11.079,13.742 14.514,22.316c3.436,8.573 5.154,17.809 5.154,27.706Zm-32.718,0c0,-6.809 -0.882,-12.939 -2.647,-18.392c-1.765,-5.453 -4.303,-10.071 -7.612,-13.853c-3.31,-3.782 -7.36,-6.682 -12.151,-8.7c-4.791,-2.017 -10.244,-3.026 -16.359,-3.026c-6.178,0 -11.678,1.009 -16.501,3.026c-4.822,2.018 -8.888,4.918 -12.198,8.7c-3.31,3.782 -5.847,8.4 -7.612,13.853c-1.765,5.453 -2.648,11.583 -2.648,18.392c0,6.871 0.883,13.033 2.648,18.486c1.765,5.453 4.302,10.071 7.612,13.853c3.31,3.783 7.376,6.667 12.198,8.652c4.823,1.986 10.323,2.979 16.501,2.979c6.115,0 11.568,-0.993 16.359,-2.979c4.791,-1.985 8.841,-4.869 12.151,-8.652c3.309,-3.782 5.847,-8.4 7.612,-13.853c1.765,-5.453 2.647,-11.615 2.647,-18.486Z" style="fill:#fff;fill-rule:nonzero;"/><circle cx="684.101" cy="85" r="85" style="fill:#771814;"/><circle cx="684.101" cy="85" r="56.923" style="fill:#d44944;"/></g></g></svg>